# xmcd
#
# Track frame offsets:
#	150
#	16055
#	32475
#	48155
#	66985
#	83035
#	98887
#	110600
#	127352
#	142035
#	156992
#	171934
#	190627
#	206722
#
# Disc length: 2953 seconds
#
# Revision: 1
# Processed by: cddbd v1.4PL0 Copyright (c) Steve Scherf et al.
# Submitted via: audiograbber 1.82.02
#
DISCID=c30b870e
DTITLE=Sula Miranda - Minha História é a sua
DYEAR=2002
DGENRE=Country
TTITLE0=Minha História é a sua
TTITLE1=O que vai ser de mim
TTITLE2=Crises de amor
TTITLE3=Frisson
TTITLE4=Chuva
TTITLE5=O destino nos separou
TTITLE6=Amor Safado
TTITLE7=Eu,Você e a Chuva
TTITLE8=Venha me Dizer
TTITLE9=Explodindo em Paixão
TTITLE10=Apaixonada por você
TTITLE11=Distânia danada
TTITLE12=No Céu dos braços teus
TTITLE13=Senhora da pele Morena
EXTD=
EXTT0=
EXTT1=
EXTT2=
EXTT3=
EXTT4=
EXTT5=
EXTT6=
EXTT7=
EXTT8=
EXTT9=
EXTT10=
EXTT11=
EXTT12=
EXTT13=
PLAYORDER=
